<?xml version="1.0" encoding="utf-8" standalone="no"?>
<!DOCTYPE svg PUBLIC "-//W3C//DTD SVG 1.1//EN"
  "http://www.w3.org/Graphics/SVG/1.1/DTD/svg11.dtd">
<svg xmlns:xlink="http://www.w3.org/1999/xlink" width="372.458594pt" height="208.042031pt" viewBox="0 0 372.458594 208.042031" xmlns="http://www.w3.org/2000/svg" version="1.1">
 <metadata>
  <rdf:RDF xmlns:dc="http://purl.org/dc/elements/1.1/" xmlns:cc="http://creativecommons.org/ns#" xmlns:rdf="http://www.w3.org/1999/02/22-rdf-syntax-ns#">
   <cc:Work>
    <dc:type rdf:resource="http://purl.org/dc/dcmitype/StillImage"/>
    <dc:date>2026-05-26T16:53:58.777429</dc:date>
    <dc:format>image/svg+xml</dc:format>
    <dc:creator>
     <cc:Agent>
      <dc:title>Matplotlib v3.7.2, https://matplotlib.org/</dc:title>
     </cc:Agent>
    </dc:creator>
   </cc:Work>
  </rdf:RDF>
 </metadata>
 <defs>
  <style type="text/css">*{stroke-linejoin: round; stroke-linecap: butt}</style>
 </defs>
 <g id="figure_1">
  <g id="patch_1">
   <path d="M 0 208.042031 
L 372.458594 208.042031 
L 372.458594 0 
L 0 0 
z
" style="fill: #ffffff"/>
  </g>
  <g id="axes_1">
   <g id="patch_2">
    <path d="M 110.639297 169.517969 
L 261.819297 169.517969 
L 261.819297 23.077969 
L 110.639297 23.077969 
z
" style="fill: #ffffff"/>
   </g>
   <g id="matplotlib.axis_1">
    <g id="xtick_1">
     <g id="line2d_1">
      <path d="M 110.639297 169.517969 
L 110.639297 23.077969 
" clip-path="url(#p84078665a5)" style="fill: none; stroke-dasharray: 2.96,1.28; stroke-dashoffset: 0; stroke: #b0b0b0; stroke-opacity: 0.45; stroke-width: 0.8"/>
     </g>
     <g id="line2d_2">
      <defs>
       <path id="mfae704db04" d="M 0 0 
L 0 3.5 
" style="stroke: #000000; stroke-width: 0.8"/>
      </defs>
      <g>
       <use xlink:href="#mfae704db04" x="110.639297" y="169.517969" style="stroke: #000000; stroke-width: 0.8"/>
      </g>
     </g>
     <g id="text_1">
      <!-- 0.0 -->
      <g transform="translate(102.687734 184.116406) scale(0.1 -0.1)">
       <defs>
        <path id="DejaVuSans-30" d="M 2034 4250 
Q 1547 4250 1301 3770 
Q 1056 3291 1056 2328 
Q 1056 1369 1301 889 
Q 1547 409 2034 409 
Q 2525 409 2770 889 
Q 3016 1369 3016 2328 
Q 3016 3291 2770 3770 
Q 2525 4250 2034 4250 
z
M 2034 4750 
Q 2819 4750 3233 4129 
Q 3647 3509 3647 2328 
Q 3647 1150 3233 529 
Q 2819 -91 2034 -91 
Q 1250 -91 836 529 
Q 422 1150 422 2328 
Q 422 3509 836 4129 
Q 1250 4750 2034 4750 
z
" transform="scale(0.015625)"/>
        <path id="DejaVuSans-2e" d="M 684 794 
L 1344 794 
L 1344 0 
L 684 0 
L 684 794 
z
" transform="scale(0.015625)"/>
       </defs>
       <use xlink:href="#DejaVuSans-30"/>
       <use xlink:href="#DejaVuSans-2e" x="63.623047"/>
       <use xlink:href="#DejaVuSans-30" x="95.410156"/>
      </g>
     </g>
    </g>
    <g id="xtick_2">
     <g id="line2d_3">
      <path d="M 146.613087 169.517969 
L 146.613087 23.077969 
" clip-path="url(#p84078665a5)" style="fill: none; stroke-dasharray: 2.96,1.28; stroke-dashoffset: 0; stroke: #b0b0b0; stroke-opacity: 0.45; stroke-width: 0.8"/>
     </g>
     <g id="line2d_4">
      <g>
       <use xlink:href="#mfae704db04" x="146.613087" y="169.517969" style="stroke: #000000; stroke-width: 0.8"/>
      </g>
     </g>
     <g id="text_2">
      <!-- 2.5 -->
      <g transform="translate(138.661525 184.116406) scale(0.1 -0.1)">
       <defs>
        <path id="DejaVuSans-32" d="M 1228 531 
L 3431 531 
L 3431 0 
L 469 0 
L 469 531 
Q 828 903 1448 1529 
Q 2069 2156 2228 2338 
Q 2531 2678 2651 2914 
Q 2772 3150 2772 3378 
Q 2772 3750 2511 3984 
Q 2250 4219 1831 4219 
Q 1534 4219 1204 4116 
Q 875 4013 500 3803 
L 500 4441 
Q 881 4594 1212 4672 
Q 1544 4750 1819 4750 
Q 2544 4750 2975 4387 
Q 3406 4025 3406 3419 
Q 3406 3131 3298 2873 
Q 3191 2616 2906 2266 
Q 2828 2175 2409 1742 
Q 1991 1309 1228 531 
z
" transform="scale(0.015625)"/>
        <path id="DejaVuSans-35" d="M 691 4666 
L 3169 4666 
L 3169 4134 
L 1269 4134 
L 1269 2991 
Q 1406 3038 1543 3061 
Q 1681 3084 1819 3084 
Q 2600 3084 3056 2656 
Q 3513 2228 3513 1497 
Q 3513 744 3044 326 
Q 2575 -91 1722 -91 
Q 1428 -91 1123 -41 
Q 819 9 494 109 
L 494 744 
Q 775 591 1075 516 
Q 1375 441 1709 441 
Q 2250 441 2565 725 
Q 2881 1009 2881 1497 
Q 2881 1984 2565 2268 
Q 2250 2553 1709 2553 
Q 1456 2553 1204 2497 
Q 953 2441 691 2322 
L 691 4666 
z
" transform="scale(0.015625)"/>
       </defs>
       <use xlink:href="#DejaVuSans-32"/>
       <use xlink:href="#DejaVuSans-2e" x="63.623047"/>
       <use xlink:href="#DejaVuSans-35" x="95.410156"/>
      </g>
     </g>
    </g>
    <g id="xtick_3">
     <g id="line2d_5">
      <path d="M 182.586877 169.517969 
L 182.586877 23.077969 
" clip-path="url(#p84078665a5)" style="fill: none; stroke-dasharray: 2.96,1.28; stroke-dashoffset: 0; stroke: #b0b0b0; stroke-opacity: 0.45; stroke-width: 0.8"/>
     </g>
     <g id="line2d_6">
      <g>
       <use xlink:href="#mfae704db04" x="182.586877" y="169.517969" style="stroke: #000000; stroke-width: 0.8"/>
      </g>
     </g>
     <g id="text_3">
      <!-- 5.0 -->
      <g transform="translate(174.635315 184.116406) scale(0.1 -0.1)">
       <use xlink:href="#DejaVuSans-35"/>
       <use xlink:href="#DejaVuSans-2e" x="63.623047"/>
       <use xlink:href="#DejaVuSans-30" x="95.410156"/>
      </g>
     </g>
    </g>
    <g id="xtick_4">
     <g id="line2d_7">
      <path d="M 218.560667 169.517969 
L 218.560667 23.077969 
" clip-path="url(#p84078665a5)" style="fill: none; stroke-dasharray: 2.96,1.28; stroke-dashoffset: 0; stroke: #b0b0b0; stroke-opacity: 0.45; stroke-width: 0.8"/>
     </g>
     <g id="line2d_8">
      <g>
       <use xlink:href="#mfae704db04" x="218.560667" y="169.517969" style="stroke: #000000; stroke-width: 0.8"/>
      </g>
     </g>
     <g id="text_4">
      <!-- 7.5 -->
      <g transform="translate(210.609105 184.116406) scale(0.1 -0.1)">
       <defs>
        <path id="DejaVuSans-37" d="M 525 4666 
L 3525 4666 
L 3525 4397 
L 1831 0 
L 1172 0 
L 2766 4134 
L 525 4134 
L 525 4666 
z
" transform="scale(0.015625)"/>
       </defs>
       <use xlink:href="#DejaVuSans-37"/>
       <use xlink:href="#DejaVuSans-2e" x="63.623047"/>
       <use xlink:href="#DejaVuSans-35" x="95.410156"/>
      </g>
     </g>
    </g>
    <g id="xtick_5">
     <g id="line2d_9">
      <path d="M 254.534458 169.517969 
L 254.534458 23.077969 
" clip-path="url(#p84078665a5)" style="fill: none; stroke-dasharray: 2.96,1.28; stroke-dashoffset: 0; stroke: #b0b0b0; stroke-opacity: 0.45; stroke-width: 0.8"/>
     </g>
     <g id="line2d_10">
      <g>
       <use xlink:href="#mfae704db04" x="254.534458" y="169.517969" style="stroke: #000000; stroke-width: 0.8"/>
      </g>
     </g>
     <g id="text_5">
      <!-- 10.0 -->
      <g transform="translate(243.401645 184.116406) scale(0.1 -0.1)">
       <defs>
        <path id="DejaVuSans-31" d="M 794 531 
L 1825 531 
L 1825 4091 
L 703 3866 
L 703 4441 
L 1819 4666 
L 2450 4666 
L 2450 531 
L 3481 531 
L 3481 0 
L 794 0 
L 794 531 
z
" transform="scale(0.015625)"/>
       </defs>
       <use xlink:href="#DejaVuSans-31"/>
       <use xlink:href="#DejaVuSans-30" x="63.623047"/>
       <use xlink:href="#DejaVuSans-2e" x="127.246094"/>
       <use xlink:href="#DejaVuSans-30" x="159.033203"/>
      </g>
     </g>
    </g>
    <g id="text_6">
     <!-- Roof Displacement — node 190, DOF 1 (in) -->
     <g transform="translate(67.937187 198.554375) scale(0.11 -0.11)">
      <defs>
       <path id="DejaVuSans-52" d="M 2841 2188 
Q 3044 2119 3236 1894 
Q 3428 1669 3622 1275 
L 4263 0 
L 3584 0 
L 2988 1197 
Q 2756 1666 2539 1819 
Q 2322 1972 1947 1972 
L 1259 1972 
L 1259 0 
L 628 0 
L 628 4666 
L 2053 4666 
Q 2853 4666 3247 4331 
Q 3641 3997 3641 3322 
Q 3641 2881 3436 2590 
Q 3231 2300 2841 2188 
z
M 1259 4147 
L 1259 2491 
L 2053 2491 
Q 2509 2491 2742 2702 
Q 2975 2913 2975 3322 
Q 2975 3731 2742 3939 
Q 2509 4147 2053 4147 
L 1259 4147 
z
" transform="scale(0.015625)"/>
       <path id="DejaVuSans-6f" d="M 1959 3097 
Q 1497 3097 1228 2736 
Q 959 2375 959 1747 
Q 959 1119 1226 758 
Q 1494 397 1959 397 
Q 2419 397 2687 759 
Q 2956 1122 2956 1747 
Q 2956 2369 2687 2733 
Q 2419 3097 1959 3097 
z
M 1959 3584 
Q 2709 3584 3137 3096 
Q 3566 2609 3566 1747 
Q 3566 888 3137 398 
Q 2709 -91 1959 -91 
Q 1206 -91 779 398 
Q 353 888 353 1747 
Q 353 2609 779 3096 
Q 1206 3584 1959 3584 
z
" transform="scale(0.015625)"/>
       <path id="DejaVuSans-66" d="M 2375 4863 
L 2375 4384 
L 1825 4384 
Q 1516 4384 1395 4259 
Q 1275 4134 1275 3809 
L 1275 3500 
L 2222 3500 
L 2222 3053 
L 1275 3053 
L 1275 0 
L 697 0 
L 697 3053 
L 147 3053 
L 147 3500 
L 697 3500 
L 697 3744 
Q 697 4328 969 4595 
Q 1241 4863 1831 4863 
L 2375 4863 
z
" transform="scale(0.015625)"/>
       <path id="DejaVuSans-20" transform="scale(0.015625)"/>
       <path id="DejaVuSans-44" d="M 1259 4147 
L 1259 519 
L 2022 519 
Q 2988 519 3436 956 
Q 3884 1394 3884 2338 
Q 3884 3275 3436 3711 
Q 2988 4147 2022 4147 
L 1259 4147 
z
M 628 4666 
L 1925 4666 
Q 3281 4666 3915 4102 
Q 4550 3538 4550 2338 
Q 4550 1131 3912 565 
Q 3275 0 1925 0 
L 628 0 
L 628 4666 
z
" transform="scale(0.015625)"/>
       <path id="DejaVuSans-69" d="M 603 3500 
L 1178 3500 
L 1178 0 
L 603 0 
L 603 3500 
z
M 603 4863 
L 1178 4863 
L 1178 4134 
L 603 4134 
L 603 4863 
z
" transform="scale(0.015625)"/>
       <path id="DejaVuSans-73" d="M 2834 3397 
L 2834 2853 
Q 2591 2978 2328 3040 
Q 2066 3103 1784 3103 
Q 1356 3103 1142 2972 
Q 928 2841 928 2578 
Q 928 2378 1081 2264 
Q 1234 2150 1697 2047 
L 1894 2003 
Q 2506 1872 2764 1633 
Q 3022 1394 3022 966 
Q 3022 478 2636 193 
Q 2250 -91 1575 -91 
Q 1294 -91 989 -36 
Q 684 19 347 128 
L 347 722 
Q 666 556 975 473 
Q 1284 391 1588 391 
Q 1994 391 2212 530 
Q 2431 669 2431 922 
Q 2431 1156 2273 1281 
Q 2116 1406 1581 1522 
L 1381 1569 
Q 847 1681 609 1914 
Q 372 2147 372 2553 
Q 372 3047 722 3315 
Q 1072 3584 1716 3584 
Q 2034 3584 2315 3537 
Q 2597 3491 2834 3397 
z
" transform="scale(0.015625)"/>
       <path id="DejaVuSans-70" d="M 1159 525 
L 1159 -1331 
L 581 -1331 
L 581 3500 
L 1159 3500 
L 1159 2969 
Q 1341 3281 1617 3432 
Q 1894 3584 2278 3584 
Q 2916 3584 3314 3078 
Q 3713 2572 3713 1747 
Q 3713 922 3314 415 
Q 2916 -91 2278 -91 
Q 1894 -91 1617 61 
Q 1341 213 1159 525 
z
M 3116 1747 
Q 3116 2381 2855 2742 
Q 2594 3103 2138 3103 
Q 1681 3103 1420 2742 
Q 1159 2381 1159 1747 
Q 1159 1113 1420 752 
Q 1681 391 2138 391 
Q 2594 391 2855 752 
Q 3116 1113 3116 1747 
z
" transform="scale(0.015625)"/>
       <path id="DejaVuSans-6c" d="M 603 4863 
L 1178 4863 
L 1178 0 
L 603 0 
L 603 4863 
z
" transform="scale(0.015625)"/>
       <path id="DejaVuSans-61" d="M 2194 1759 
Q 1497 1759 1228 1600 
Q 959 1441 959 1056 
Q 959 750 1161 570 
Q 1363 391 1709 391 
Q 2188 391 2477 730 
Q 2766 1069 2766 1631 
L 2766 1759 
L 2194 1759 
z
M 3341 1997 
L 3341 0 
L 2766 0 
L 2766 531 
Q 2569 213 2275 61 
Q 1981 -91 1556 -91 
Q 1019 -91 701 211 
Q 384 513 384 1019 
Q 384 1609 779 1909 
Q 1175 2209 1959 2209 
L 2766 2209 
L 2766 2266 
Q 2766 2663 2505 2880 
Q 2244 3097 1772 3097 
Q 1472 3097 1187 3025 
Q 903 2953 641 2809 
L 641 3341 
Q 956 3463 1253 3523 
Q 1550 3584 1831 3584 
Q 2591 3584 2966 3190 
Q 3341 2797 3341 1997 
z
" transform="scale(0.015625)"/>
       <path id="DejaVuSans-63" d="M 3122 3366 
L 3122 2828 
Q 2878 2963 2633 3030 
Q 2388 3097 2138 3097 
Q 1578 3097 1268 2742 
Q 959 2388 959 1747 
Q 959 1106 1268 751 
Q 1578 397 2138 397 
Q 2388 397 2633 464 
Q 2878 531 3122 666 
L 3122 134 
Q 2881 22 2623 -34 
Q 2366 -91 2075 -91 
Q 1284 -91 818 406 
Q 353 903 353 1747 
Q 353 2603 823 3093 
Q 1294 3584 2113 3584 
Q 2378 3584 2631 3529 
Q 2884 3475 3122 3366 
z
" transform="scale(0.015625)"/>
       <path id="DejaVuSans-65" d="M 3597 1894 
L 3597 1613 
L 953 1613 
Q 991 1019 1311 708 
Q 1631 397 2203 397 
Q 2534 397 2845 478 
Q 3156 559 3463 722 
L 3463 178 
Q 3153 47 2828 -22 
Q 2503 -91 2169 -91 
Q 1331 -91 842 396 
Q 353 884 353 1716 
Q 353 2575 817 3079 
Q 1281 3584 2069 3584 
Q 2775 3584 3186 3129 
Q 3597 2675 3597 1894 
z
M 3022 2063 
Q 3016 2534 2758 2815 
Q 2500 3097 2075 3097 
Q 1594 3097 1305 2825 
Q 1016 2553 972 2059 
L 3022 2063 
z
" transform="scale(0.015625)"/>
       <path id="DejaVuSans-6d" d="M 3328 2828 
Q 3544 3216 3844 3400 
Q 4144 3584 4550 3584 
Q 5097 3584 5394 3201 
Q 5691 2819 5691 2113 
L 5691 0 
L 5113 0 
L 5113 2094 
Q 5113 2597 4934 2840 
Q 4756 3084 4391 3084 
Q 3944 3084 3684 2787 
Q 3425 2491 3425 1978 
L 3425 0 
L 2847 0 
L 2847 2094 
Q 2847 2600 2669 2842 
Q 2491 3084 2119 3084 
Q 1678 3084 1418 2786 
Q 1159 2488 1159 1978 
L 1159 0 
L 581 0 
L 581 3500 
L 1159 3500 
L 1159 2956 
Q 1356 3278 1631 3431 
Q 1906 3584 2284 3584 
Q 2666 3584 2933 3390 
Q 3200 3197 3328 2828 
z
" transform="scale(0.015625)"/>
       <path id="DejaVuSans-6e" d="M 3513 2113 
L 3513 0 
L 2938 0 
L 2938 2094 
Q 2938 2591 2744 2837 
Q 2550 3084 2163 3084 
Q 1697 3084 1428 2787 
Q 1159 2491 1159 1978 
L 1159 0 
L 581 0 
L 581 3500 
L 1159 3500 
L 1159 2956 
Q 1366 3272 1645 3428 
Q 1925 3584 2291 3584 
Q 2894 3584 3203 3211 
Q 3513 2838 3513 2113 
z
" transform="scale(0.015625)"/>
       <path id="DejaVuSans-74" d="M 1172 4494 
L 1172 3500 
L 2356 3500 
L 2356 3053 
L 1172 3053 
L 1172 1153 
Q 1172 725 1289 603 
Q 1406 481 1766 481 
L 2356 481 
L 2356 0 
L 1766 0 
Q 1100 0 847 248 
Q 594 497 594 1153 
L 594 3053 
L 172 3053 
L 172 3500 
L 594 3500 
L 594 4494 
L 1172 4494 
z
" transform="scale(0.015625)"/>
       <path id="DejaVuSans-2014" d="M 313 1978 
L 6088 1978 
L 6088 1528 
L 313 1528 
L 313 1978 
z
" transform="scale(0.015625)"/>
       <path id="DejaVuSans-64" d="M 2906 2969 
L 2906 4863 
L 3481 4863 
L 3481 0 
L 2906 0 
L 2906 525 
Q 2725 213 2448 61 
Q 2172 -91 1784 -91 
Q 1150 -91 751 415 
Q 353 922 353 1747 
Q 353 2572 751 3078 
Q 1150 3584 1784 3584 
Q 2172 3584 2448 3432 
Q 2725 3281 2906 2969 
z
M 947 1747 
Q 947 1113 1208 752 
Q 1469 391 1925 391 
Q 2381 391 2643 752 
Q 2906 1113 2906 1747 
Q 2906 2381 2643 2742 
Q 2381 3103 1925 3103 
Q 1469 3103 1208 2742 
Q 947 2381 947 1747 
z
" transform="scale(0.015625)"/>
       <path id="DejaVuSans-39" d="M 703 97 
L 703 672 
Q 941 559 1184 500 
Q 1428 441 1663 441 
Q 2288 441 2617 861 
Q 2947 1281 2994 2138 
Q 2813 1869 2534 1725 
Q 2256 1581 1919 1581 
Q 1219 1581 811 2004 
Q 403 2428 403 3163 
Q 403 3881 828 4315 
Q 1253 4750 1959 4750 
Q 2769 4750 3195 4129 
Q 3622 3509 3622 2328 
Q 3622 1225 3098 567 
Q 2575 -91 1691 -91 
Q 1453 -91 1209 -44 
Q 966 3 703 97 
z
M 1959 2075 
Q 2384 2075 2632 2365 
Q 2881 2656 2881 3163 
Q 2881 3666 2632 3958 
Q 2384 4250 1959 4250 
Q 1534 4250 1286 3958 
Q 1038 3666 1038 3163 
Q 1038 2656 1286 2365 
Q 1534 2075 1959 2075 
z
" transform="scale(0.015625)"/>
       <path id="DejaVuSans-2c" d="M 750 794 
L 1409 794 
L 1409 256 
L 897 -744 
L 494 -744 
L 750 256 
L 750 794 
z
" transform="scale(0.015625)"/>
       <path id="DejaVuSans-4f" d="M 2522 4238 
Q 1834 4238 1429 3725 
Q 1025 3213 1025 2328 
Q 1025 1447 1429 934 
Q 1834 422 2522 422 
Q 3209 422 3611 934 
Q 4013 1447 4013 2328 
Q 4013 3213 3611 3725 
Q 3209 4238 2522 4238 
z
M 2522 4750 
Q 3503 4750 4090 4092 
Q 4678 3434 4678 2328 
Q 4678 1225 4090 567 
Q 3503 -91 2522 -91 
Q 1538 -91 948 565 
Q 359 1222 359 2328 
Q 359 3434 948 4092 
Q 1538 4750 2522 4750 
z
" transform="scale(0.015625)"/>
       <path id="DejaVuSans-46" d="M 628 4666 
L 3309 4666 
L 3309 4134 
L 1259 4134 
L 1259 2759 
L 3109 2759 
L 3109 2228 
L 1259 2228 
L 1259 0 
L 628 0 
L 628 4666 
z
" transform="scale(0.015625)"/>
       <path id="DejaVuSans-28" d="M 1984 4856 
Q 1566 4138 1362 3434 
Q 1159 2731 1159 2009 
Q 1159 1288 1364 580 
Q 1569 -128 1984 -844 
L 1484 -844 
Q 1016 -109 783 600 
Q 550 1309 550 2009 
Q 550 2706 781 3412 
Q 1013 4119 1484 4856 
L 1984 4856 
z
" transform="scale(0.015625)"/>
       <path id="DejaVuSans-29" d="M 513 4856 
L 1013 4856 
Q 1481 4119 1714 3412 
Q 1947 2706 1947 2009 
Q 1947 1309 1714 600 
Q 1481 -109 1013 -844 
L 513 -844 
Q 928 -128 1133 580 
Q 1338 1288 1338 2009 
Q 1338 2731 1133 3434 
Q 928 4138 513 4856 
z
" transform="scale(0.015625)"/>
      </defs>
      <use xlink:href="#DejaVuSans-52"/>
      <use xlink:href="#DejaVuSans-6f" x="64.982422"/>
      <use xlink:href="#DejaVuSans-6f" x="126.164062"/>
      <use xlink:href="#DejaVuSans-66" x="187.345703"/>
      <use xlink:href="#DejaVuSans-20" x="222.550781"/>
      <use xlink:href="#DejaVuSans-44" x="254.337891"/>
      <use xlink:href="#DejaVuSans-69" x="331.339844"/>
      <use xlink:href="#DejaVuSans-73" x="359.123047"/>
      <use xlink:href="#DejaVuSans-70" x="411.222656"/>
      <use xlink:href="#DejaVuSans-6c" x="474.699219"/>
      <use xlink:href="#DejaVuSans-61" x="502.482422"/>
      <use xlink:href="#DejaVuSans-63" x="563.761719"/>
      <use xlink:href="#DejaVuSans-65" x="618.742188"/>
      <use xlink:href="#DejaVuSans-6d" x="680.265625"/>
      <use xlink:href="#DejaVuSans-65" x="777.677734"/>
      <use xlink:href="#DejaVuSans-6e" x="839.201172"/>
      <use xlink:href="#DejaVuSans-74" x="902.580078"/>
      <use xlink:href="#DejaVuSans-20" x="941.789062"/>
      <use xlink:href="#DejaVuSans-2014" x="973.576172"/>
      <use xlink:href="#DejaVuSans-20" x="1073.576172"/>
      <use xlink:href="#DejaVuSans-6e" x="1105.363281"/>
      <use xlink:href="#DejaVuSans-6f" x="1168.742188"/>
      <use xlink:href="#DejaVuSans-64" x="1229.923828"/>
      <use xlink:href="#DejaVuSans-65" x="1293.400391"/>
      <use xlink:href="#DejaVuSans-20" x="1354.923828"/>
      <use xlink:href="#DejaVuSans-31" x="1386.710938"/>
      <use xlink:href="#DejaVuSans-39" x="1450.333984"/>
      <use xlink:href="#DejaVuSans-30" x="1513.957031"/>
      <use xlink:href="#DejaVuSans-2c" x="1577.580078"/>
      <use xlink:href="#DejaVuSans-20" x="1609.367188"/>
      <use xlink:href="#DejaVuSans-44" x="1641.154297"/>
      <use xlink:href="#DejaVuSans-4f" x="1718.15625"/>
      <use xlink:href="#DejaVuSans-46" x="1796.867188"/>
      <use xlink:href="#DejaVuSans-20" x="1854.386719"/>
      <use xlink:href="#DejaVuSans-31" x="1886.173828"/>
      <use xlink:href="#DejaVuSans-20" x="1949.796875"/>
      <use xlink:href="#DejaVuSans-28" x="1981.583984"/>
      <use xlink:href="#DejaVuSans-69" x="2020.597656"/>
      <use xlink:href="#DejaVuSans-6e" x="2048.380859"/>
      <use xlink:href="#DejaVuSans-29" x="2111.759766"/>
     </g>
    </g>
   </g>
   <g id="matplotlib.axis_2">
    <g id="ytick_1">
     <g id="line2d_11">
      <path d="M 110.639297 169.517969 
L 261.819297 169.517969 
" clip-path="url(#p84078665a5)" style="fill: none; stroke-dasharray: 2.96,1.28; stroke-dashoffset: 0; stroke: #b0b0b0; stroke-opacity: 0.45; stroke-width: 0.8"/>
     </g>
     <g id="line2d_12">
      <defs>
       <path id="m8d15f81318" d="M 0 0 
L -3.5 0 
" style="stroke: #000000; stroke-width: 0.8"/>
      </defs>
      <g>
       <use xlink:href="#m8d15f81318" x="110.639297" y="169.517969" style="stroke: #000000; stroke-width: 0.8"/>
      </g>
     </g>
     <g id="text_7">
      <!-- 0 -->
      <g transform="translate(97.276797 173.317187) scale(0.1 -0.1)">
       <use xlink:href="#DejaVuSans-30"/>
      </g>
     </g>
    </g>
    <g id="ytick_2">
     <g id="line2d_13">
      <path d="M 110.639297 141.580188 
L 261.819297 141.580188 
" clip-path="url(#p84078665a5)" style="fill: none; stroke-dasharray: 2.96,1.28; stroke-dashoffset: 0; stroke: #b0b0b0; stroke-opacity: 0.45; stroke-width: 0.8"/>
     </g>
     <g id="line2d_14">
      <g>
       <use xlink:href="#m8d15f81318" x="110.639297" y="141.580188" style="stroke: #000000; stroke-width: 0.8"/>
      </g>
     </g>
     <g id="text_8">
      <!-- 100 -->
      <g transform="translate(84.551797 145.379407) scale(0.1 -0.1)">
       <use xlink:href="#DejaVuSans-31"/>
       <use xlink:href="#DejaVuSans-30" x="63.623047"/>
       <use xlink:href="#DejaVuSans-30" x="127.246094"/>
      </g>
     </g>
    </g>
    <g id="ytick_3">
     <g id="line2d_15">
      <path d="M 110.639297 113.642407 
L 261.819297 113.642407 
" clip-path="url(#p84078665a5)" style="fill: none; stroke-dasharray: 2.96,1.28; stroke-dashoffset: 0; stroke: #b0b0b0; stroke-opacity: 0.45; stroke-width: 0.8"/>
     </g>
     <g id="line2d_16">
      <g>
       <use xlink:href="#m8d15f81318" x="110.639297" y="113.642407" style="stroke: #000000; stroke-width: 0.8"/>
      </g>
     </g>
     <g id="text_9">
      <!-- 200 -->
      <g transform="translate(84.551797 117.441626) scale(0.1 -0.1)">
       <use xlink:href="#DejaVuSans-32"/>
       <use xlink:href="#DejaVuSans-30" x="63.623047"/>
       <use xlink:href="#DejaVuSans-30" x="127.246094"/>
      </g>
     </g>
    </g>
    <g id="ytick_4">
     <g id="line2d_17">
      <path d="M 110.639297 85.704627 
L 261.819297 85.704627 
" clip-path="url(#p84078665a5)" style="fill: none; stroke-dasharray: 2.96,1.28; stroke-dashoffset: 0; stroke: #b0b0b0; stroke-opacity: 0.45; stroke-width: 0.8"/>
     </g>
     <g id="line2d_18">
      <g>
       <use xlink:href="#m8d15f81318" x="110.639297" y="85.704627" style="stroke: #000000; stroke-width: 0.8"/>
      </g>
     </g>
     <g id="text_10">
      <!-- 300 -->
      <g transform="translate(84.551797 89.503845) scale(0.1 -0.1)">
       <defs>
        <path id="DejaVuSans-33" d="M 2597 2516 
Q 3050 2419 3304 2112 
Q 3559 1806 3559 1356 
Q 3559 666 3084 287 
Q 2609 -91 1734 -91 
Q 1441 -91 1130 -33 
Q 819 25 488 141 
L 488 750 
Q 750 597 1062 519 
Q 1375 441 1716 441 
Q 2309 441 2620 675 
Q 2931 909 2931 1356 
Q 2931 1769 2642 2001 
Q 2353 2234 1838 2234 
L 1294 2234 
L 1294 2753 
L 1863 2753 
Q 2328 2753 2575 2939 
Q 2822 3125 2822 3475 
Q 2822 3834 2567 4026 
Q 2313 4219 1838 4219 
Q 1578 4219 1281 4162 
Q 984 4106 628 3988 
L 628 4550 
Q 988 4650 1302 4700 
Q 1616 4750 1894 4750 
Q 2613 4750 3031 4423 
Q 3450 4097 3450 3541 
Q 3450 3153 3228 2886 
Q 3006 2619 2597 2516 
z
" transform="scale(0.015625)"/>
       </defs>
       <use xlink:href="#DejaVuSans-33"/>
       <use xlink:href="#DejaVuSans-30" x="63.623047"/>
       <use xlink:href="#DejaVuSans-30" x="127.246094"/>
      </g>
     </g>
    </g>
    <g id="ytick_5">
     <g id="line2d_19">
      <path d="M 110.639297 57.766846 
L 261.819297 57.766846 
" clip-path="url(#p84078665a5)" style="fill: none; stroke-dasharray: 2.96,1.28; stroke-dashoffset: 0; stroke: #b0b0b0; stroke-opacity: 0.45; stroke-width: 0.8"/>
     </g>
     <g id="line2d_20">
      <g>
       <use xlink:href="#m8d15f81318" x="110.639297" y="57.766846" style="stroke: #000000; stroke-width: 0.8"/>
      </g>
     </g>
     <g id="text_11">
      <!-- 400 -->
      <g transform="translate(84.551797 61.566065) scale(0.1 -0.1)">
       <defs>
        <path id="DejaVuSans-34" d="M 2419 4116 
L 825 1625 
L 2419 1625 
L 2419 4116 
z
M 2253 4666 
L 3047 4666 
L 3047 1625 
L 3713 1625 
L 3713 1100 
L 3047 1100 
L 3047 0 
L 2419 0 
L 2419 1100 
L 313 1100 
L 313 1709 
L 2253 4666 
z
" transform="scale(0.015625)"/>
       </defs>
       <use xlink:href="#DejaVuSans-34"/>
       <use xlink:href="#DejaVuSans-30" x="63.623047"/>
       <use xlink:href="#DejaVuSans-30" x="127.246094"/>
      </g>
     </g>
    </g>
    <g id="ytick_6">
     <g id="line2d_21">
      <path d="M 110.639297 29.829065 
L 261.819297 29.829065 
" clip-path="url(#p84078665a5)" style="fill: none; stroke-dasharray: 2.96,1.28; stroke-dashoffset: 0; stroke: #b0b0b0; stroke-opacity: 0.45; stroke-width: 0.8"/>
     </g>
     <g id="line2d_22">
      <g>
       <use xlink:href="#m8d15f81318" x="110.639297" y="29.829065" style="stroke: #000000; stroke-width: 0.8"/>
      </g>
     </g>
     <g id="text_12">
      <!-- 500 -->
      <g transform="translate(84.551797 33.628284) scale(0.1 -0.1)">
       <use xlink:href="#DejaVuSans-35"/>
       <use xlink:href="#DejaVuSans-30" x="63.623047"/>
       <use xlink:href="#DejaVuSans-30" x="127.246094"/>
      </g>
     </g>
    </g>
    <g id="text_13">
     <!-- Base Shear — sum of reactions at 38 support nodes (kips) -->
     <g transform="translate(78.264141 256.585156) rotate(-90) scale(0.11 -0.11)">
      <defs>
       <path id="DejaVuSans-42" d="M 1259 2228 
L 1259 519 
L 2272 519 
Q 2781 519 3026 730 
Q 3272 941 3272 1375 
Q 3272 1813 3026 2020 
Q 2781 2228 2272 2228 
L 1259 2228 
z
M 1259 4147 
L 1259 2741 
L 2194 2741 
Q 2656 2741 2882 2914 
Q 3109 3088 3109 3444 
Q 3109 3797 2882 3972 
Q 2656 4147 2194 4147 
L 1259 4147 
z
M 628 4666 
L 2241 4666 
Q 2963 4666 3353 4366 
Q 3744 4066 3744 3513 
Q 3744 3084 3544 2831 
Q 3344 2578 2956 2516 
Q 3422 2416 3680 2098 
Q 3938 1781 3938 1306 
Q 3938 681 3513 340 
Q 3088 0 2303 0 
L 628 0 
L 628 4666 
z
" transform="scale(0.015625)"/>
       <path id="DejaVuSans-53" d="M 3425 4513 
L 3425 3897 
Q 3066 4069 2747 4153 
Q 2428 4238 2131 4238 
Q 1616 4238 1336 4038 
Q 1056 3838 1056 3469 
Q 1056 3159 1242 3001 
Q 1428 2844 1947 2747 
L 2328 2669 
Q 3034 2534 3370 2195 
Q 3706 1856 3706 1288 
Q 3706 609 3251 259 
Q 2797 -91 1919 -91 
Q 1588 -91 1214 -16 
Q 841 59 441 206 
L 441 856 
Q 825 641 1194 531 
Q 1563 422 1919 422 
Q 2459 422 2753 634 
Q 3047 847 3047 1241 
Q 3047 1584 2836 1778 
Q 2625 1972 2144 2069 
L 1759 2144 
Q 1053 2284 737 2584 
Q 422 2884 422 3419 
Q 422 4038 858 4394 
Q 1294 4750 2059 4750 
Q 2388 4750 2728 4690 
Q 3069 4631 3425 4513 
z
" transform="scale(0.015625)"/>
       <path id="DejaVuSans-68" d="M 3513 2113 
L 3513 0 
L 2938 0 
L 2938 2094 
Q 2938 2591 2744 2837 
Q 2550 3084 2163 3084 
Q 1697 3084 1428 2787 
Q 1159 2491 1159 1978 
L 1159 0 
L 581 0 
L 581 4863 
L 1159 4863 
L 1159 2956 
Q 1366 3272 1645 3428 
Q 1925 3584 2291 3584 
Q 2894 3584 3203 3211 
Q 3513 2838 3513 2113 
z
" transform="scale(0.015625)"/>
       <path id="DejaVuSans-72" d="M 2631 2963 
Q 2534 3019 2420 3045 
Q 2306 3072 2169 3072 
Q 1681 3072 1420 2755 
Q 1159 2438 1159 1844 
L 1159 0 
L 581 0 
L 581 3500 
L 1159 3500 
L 1159 2956 
Q 1341 3275 1631 3429 
Q 1922 3584 2338 3584 
Q 2397 3584 2469 3576 
Q 2541 3569 2628 3553 
L 2631 2963 
z
" transform="scale(0.015625)"/>
       <path id="DejaVuSans-75" d="M 544 1381 
L 544 3500 
L 1119 3500 
L 1119 1403 
Q 1119 906 1312 657 
Q 1506 409 1894 409 
Q 2359 409 2629 706 
Q 2900 1003 2900 1516 
L 2900 3500 
L 3475 3500 
L 3475 0 
L 2900 0 
L 2900 538 
Q 2691 219 2414 64 
Q 2138 -91 1772 -91 
Q 1169 -91 856 284 
Q 544 659 544 1381 
z
M 1991 3584 
L 1991 3584 
z
" transform="scale(0.015625)"/>
       <path id="DejaVuSans-38" d="M 2034 2216 
Q 1584 2216 1326 1975 
Q 1069 1734 1069 1313 
Q 1069 891 1326 650 
Q 1584 409 2034 409 
Q 2484 409 2743 651 
Q 3003 894 3003 1313 
Q 3003 1734 2745 1975 
Q 2488 2216 2034 2216 
z
M 1403 2484 
Q 997 2584 770 2862 
Q 544 3141 544 3541 
Q 544 4100 942 4425 
Q 1341 4750 2034 4750 
Q 2731 4750 3128 4425 
Q 3525 4100 3525 3541 
Q 3525 3141 3298 2862 
Q 3072 2584 2669 2484 
Q 3125 2378 3379 2068 
Q 3634 1759 3634 1313 
Q 3634 634 3220 271 
Q 2806 -91 2034 -91 
Q 1263 -91 848 271 
Q 434 634 434 1313 
Q 434 1759 690 2068 
Q 947 2378 1403 2484 
z
M 1172 3481 
Q 1172 3119 1398 2916 
Q 1625 2713 2034 2713 
Q 2441 2713 2670 2916 
Q 2900 3119 2900 3481 
Q 2900 3844 2670 4047 
Q 2441 4250 2034 4250 
Q 1625 4250 1398 4047 
Q 1172 3844 1172 3481 
z
" transform="scale(0.015625)"/>
       <path id="DejaVuSans-6b" d="M 581 4863 
L 1159 4863 
L 1159 1991 
L 2875 3500 
L 3609 3500 
L 1753 1863 
L 3688 0 
L 2938 0 
L 1159 1709 
L 1159 0 
L 581 0 
L 581 4863 
z
" transform="scale(0.015625)"/>
      </defs>
      <use xlink:href="#DejaVuSans-42"/>
      <use xlink:href="#DejaVuSans-61" x="68.603516"/>
      <use xlink:href="#DejaVuSans-73" x="129.882812"/>
      <use xlink:href="#DejaVuSans-65" x="181.982422"/>
      <use xlink:href="#DejaVuSans-20" x="243.505859"/>
      <use xlink:href="#DejaVuSans-53" x="275.292969"/>
      <use xlink:href="#DejaVuSans-68" x="338.769531"/>
      <use xlink:href="#DejaVuSans-65" x="402.148438"/>
      <use xlink:href="#DejaVuSans-61" x="463.671875"/>
      <use xlink:href="#DejaVuSans-72" x="524.951172"/>
      <use xlink:href="#DejaVuSans-20" x="566.064453"/>
      <use xlink:href="#DejaVuSans-2014" x="597.851562"/>
      <use xlink:href="#DejaVuSans-20" x="697.851562"/>
      <use xlink:href="#DejaVuSans-73" x="729.638672"/>
      <use xlink:href="#DejaVuSans-75" x="781.738281"/>
      <use xlink:href="#DejaVuSans-6d" x="845.117188"/>
      <use xlink:href="#DejaVuSans-20" x="942.529297"/>
      <use xlink:href="#DejaVuSans-6f" x="974.316406"/>
      <use xlink:href="#DejaVuSans-66" x="1035.498047"/>
      <use xlink:href="#DejaVuSans-20" x="1070.703125"/>
      <use xlink:href="#DejaVuSans-72" x="1102.490234"/>
      <use xlink:href="#DejaVuSans-65" x="1141.353516"/>
      <use xlink:href="#DejaVuSans-61" x="1202.876953"/>
      <use xlink:href="#DejaVuSans-63" x="1264.15625"/>
      <use xlink:href="#DejaVuSans-74" x="1319.136719"/>
      <use xlink:href="#DejaVuSans-69" x="1358.345703"/>
      <use xlink:href="#DejaVuSans-6f" x="1386.128906"/>
      <use xlink:href="#DejaVuSans-6e" x="1447.310547"/>
      <use xlink:href="#DejaVuSans-73" x="1510.689453"/>
      <use xlink:href="#DejaVuSans-20" x="1562.789062"/>
      <use xlink:href="#DejaVuSans-61" x="1594.576172"/>
      <use xlink:href="#DejaVuSans-74" x="1655.855469"/>
      <use xlink:href="#DejaVuSans-20" x="1695.064453"/>
      <use xlink:href="#DejaVuSans-33" x="1726.851562"/>
      <use xlink:href="#DejaVuSans-38" x="1790.474609"/>
      <use xlink:href="#DejaVuSans-20" x="1854.097656"/>
      <use xlink:href="#DejaVuSans-73" x="1885.884766"/>
      <use xlink:href="#DejaVuSans-75" x="1937.984375"/>
      <use xlink:href="#DejaVuSans-70" x="2001.363281"/>
      <use xlink:href="#DejaVuSans-70" x="2064.839844"/>
      <use xlink:href="#DejaVuSans-6f" x="2128.316406"/>
      <use xlink:href="#DejaVuSans-72" x="2189.498047"/>
      <use xlink:href="#DejaVuSans-74" x="2230.611328"/>
      <use xlink:href="#DejaVuSans-20" x="2269.820312"/>
      <use xlink:href="#DejaVuSans-6e" x="2301.607422"/>
      <use xlink:href="#DejaVuSans-6f" x="2364.986328"/>
      <use xlink:href="#DejaVuSans-64" x="2426.167969"/>
      <use xlink:href="#DejaVuSans-65" x="2489.644531"/>
      <use xlink:href="#DejaVuSans-73" x="2551.167969"/>
      <use xlink:href="#DejaVuSans-20" x="2603.267578"/>
      <use xlink:href="#DejaVuSans-28" x="2635.054688"/>
      <use xlink:href="#DejaVuSans-6b" x="2674.068359"/>
      <use xlink:href="#DejaVuSans-69" x="2731.978516"/>
      <use xlink:href="#DejaVuSans-70" x="2759.761719"/>
      <use xlink:href="#DejaVuSans-73" x="2823.238281"/>
      <use xlink:href="#DejaVuSans-29" x="2875.337891"/>
     </g>
    </g>
   </g>
   <g id="patch_3">
    <path d="M 110.639297 169.517969 
L 110.639297 23.077969 
" style="fill: none; stroke: #000000; stroke-width: 0.8; stroke-linejoin: miter; stroke-linecap: square"/>
   </g>
   <g id="patch_4">
    <path d="M 261.819297 169.517969 
L 261.819297 23.077969 
" style="fill: none; stroke: #000000; stroke-width: 0.8; stroke-linejoin: miter; stroke-linecap: square"/>
   </g>
   <g id="patch_5">
    <path d="M 110.639297 169.517969 
L 261.819297 169.517969 
" style="fill: none; stroke: #000000; stroke-width: 0.8; stroke-linejoin: miter; stroke-linecap: square"/>
   </g>
   <g id="patch_6">
    <path d="M 110.639297 23.077969 
L 261.819297 23.077969 
" style="fill: none; stroke: #000000; stroke-width: 0.8; stroke-linejoin: miter; stroke-linecap: square"/>
   </g>
   <g id="line2d_23">
    <path d="M 110.639297 169.517969 
L 166.124725 82.038958 
L 166.844201 81.327915 
L 167.563677 80.623845 
L 168.283153 79.925962 
L 169.002629 79.233687 
L 169.722104 78.546958 
L 170.44158 77.865792 
L 171.161056 77.190114 
L 171.880532 76.519972 
L 172.600008 75.855247 
L 173.319483 75.195861 
L 174.038959 74.541939 
L 174.758435 73.893524 
L 175.477911 73.250526 
L 176.197387 72.613068 
L 176.916863 71.980246 
L 177.636338 71.352001 
L 178.355814 70.728305 
L 179.07529 70.109546 
L 179.794766 69.496061 
L 180.514242 68.888103 
L 181.233717 68.285786 
L 181.953193 67.687873 
L 182.672669 67.094587 
L 183.392145 66.505886 
L 184.111621 65.921641 
L 184.831096 65.341874 
L 185.550572 64.766705 
L 186.270048 64.196214 
L 186.989524 63.630629 
L 187.709 63.069949 
L 188.428475 62.514029 
L 189.147951 61.962602 
L 189.867427 61.4159 
L 190.586903 60.873852 
L 191.306379 60.336732 
L 192.025854 59.80426 
L 192.74533 59.276489 
L 193.464806 58.753487 
L 194.184282 58.235479 
L 194.903758 57.722171 
L 195.623233 57.213884 
L 196.342709 56.710442 
L 197.062185 56.212226 
L 197.781661 55.719265 
L 198.501137 55.232325 
L 199.220612 54.751548 
L 199.940088 54.276904 
L 200.659564 53.808998 
L 201.37904 53.347731 
L 202.098516 52.893634 
L 202.817991 52.446688 
L 203.537467 52.006452 
L 204.256943 51.572974 
L 204.976419 51.14638 
L 205.695895 50.726746 
L 206.41537 50.312631 
L 207.134846 49.904066 
L 207.854322 49.499459 
L 208.573798 49.09738 
L 209.293274 48.697808 
L 210.012749 48.301242 
L 210.732225 47.907823 
L 211.451701 47.517912 
L 212.171177 47.131061 
L 212.890653 46.747755 
L 213.610128 46.36809 
L 214.329604 45.991857 
L 215.04908 45.619196 
L 215.768556 45.250736 
L 216.488032 44.887286 
L 217.207507 44.526823 
L 217.926983 44.170199 
L 218.646459 43.817975 
L 219.365935 43.470231 
L 220.085411 43.126566 
L 220.804887 42.787299 
L 221.524362 42.452197 
L 222.243838 42.120188 
L 222.963314 41.791239 
L 223.68279 41.467026 
L 224.402266 41.148623 
L 225.121741 40.833965 
L 225.841217 40.522626 
L 226.560693 40.214961 
L 227.280169 39.908629 
L 227.999645 39.6052 
L 228.71912 39.305985 
L 229.438596 39.01119 
L 230.158072 38.719502 
L 230.877548 38.42937 
L 231.597024 38.14191 
L 232.316499 37.857126 
L 233.035975 37.571954 
L 233.755451 37.289415 
L 234.474927 37.010483 
L 235.194403 36.734286 
L 235.913878 36.460462 
L 236.633354 36.189518 
L 237.35283 35.920402 
L 238.072306 35.65104 
L 238.791782 35.384162 
L 239.511257 35.119374 
L 240.230733 34.856157 
L 240.950209 34.595254 
L 241.669685 34.336449 
L 242.389161 34.07926 
L 243.108636 33.824642 
L 243.828112 33.573326 
L 244.547588 33.325712 
L 245.267064 33.080746 
L 245.98654 32.835802 
L 246.706015 32.593473 
L 247.425491 32.352472 
L 248.144967 32.112665 
L 248.864443 31.874273 
L 249.583919 31.637977 
L 250.303394 31.405629 
L 251.02287 31.177339 
L 251.742346 30.951184 
L 252.461822 30.725256 
L 253.181298 30.498669 
L 253.900773 30.273808 
L 254.620249 30.051302 
" clip-path="url(#p84078665a5)" style="fill: none; stroke: #4682b4; stroke-width: 2; stroke-linecap: square"/>
   </g>
   <g id="patch_7">
    <path d="M 256.640054 30.344886 
Q 256.618357 30.341732 257.703067 30.499397 
" style="fill: none; stroke: #808080; stroke-linecap: round"/>
    <path d="M 261.006716 32.798506 
L 257.703067 30.499397 
L 261.524544 29.235943 
" style="fill: none; stroke: #808080; stroke-linecap: round"/>
   </g>
   <g id="text_14">
    <g id="patch_8">
     <path d="M 261.819297 48.569688 
L 335.816172 48.569688 
Q 338.516172 48.569688 338.516172 45.869687 
L 338.516172 27.081344 
Q 338.516172 24.381344 335.816172 24.381344 
L 261.819297 24.381344 
Q 259.119297 24.381344 259.119297 27.081344 
L 259.119297 45.869687 
Q 259.119297 48.569688 261.819297 48.569688 
z
" style="fill: #ffffe0; opacity: 0.8; stroke: #808080; stroke-linejoin: miter"/>
    </g>
    <!-- Peak: 499.2 kips -->
    <g transform="translate(261.819297 33.919937) scale(0.09 -0.09)">
     <defs>
      <path id="DejaVuSans-50" d="M 1259 4147 
L 1259 2394 
L 2053 2394 
Q 2494 2394 2734 2622 
Q 2975 2850 2975 3272 
Q 2975 3691 2734 3919 
Q 2494 4147 2053 4147 
L 1259 4147 
z
M 628 4666 
L 2053 4666 
Q 2838 4666 3239 4311 
Q 3641 3956 3641 3272 
Q 3641 2581 3239 2228 
Q 2838 1875 2053 1875 
L 1259 1875 
L 1259 0 
L 628 0 
L 628 4666 
z
" transform="scale(0.015625)"/>
      <path id="DejaVuSans-3a" d="M 750 794 
L 1409 794 
L 1409 0 
L 750 0 
L 750 794 
z
M 750 3309 
L 1409 3309 
L 1409 2516 
L 750 2516 
L 750 3309 
z
" transform="scale(0.015625)"/>
     </defs>
     <use xlink:href="#DejaVuSans-50"/>
     <use xlink:href="#DejaVuSans-65" x="56.677734"/>
     <use xlink:href="#DejaVuSans-61" x="118.201172"/>
     <use xlink:href="#DejaVuSans-6b" x="179.480469"/>
     <use xlink:href="#DejaVuSans-3a" x="237.390625"/>
     <use xlink:href="#DejaVuSans-20" x="271.082031"/>
     <use xlink:href="#DejaVuSans-34" x="302.869141"/>
     <use xlink:href="#DejaVuSans-39" x="366.492188"/>
     <use xlink:href="#DejaVuSans-39" x="430.115234"/>
     <use xlink:href="#DejaVuSans-2e" x="493.738281"/>
     <use xlink:href="#DejaVuSans-32" x="525.525391"/>
     <use xlink:href="#DejaVuSans-20" x="589.148438"/>
     <use xlink:href="#DejaVuSans-6b" x="620.935547"/>
     <use xlink:href="#DejaVuSans-69" x="678.845703"/>
     <use xlink:href="#DejaVuSans-70" x="706.628906"/>
     <use xlink:href="#DejaVuSans-73" x="770.105469"/>
    </g>
    <!-- @ Δ = 10.01 in -->
    <g transform="translate(261.819297 43.997969) scale(0.09 -0.09)">
     <defs>
      <path id="DejaVuSans-40" d="M 2381 1678 
Q 2381 1231 2603 976 
Q 2825 722 3213 722 
Q 3597 722 3817 978 
Q 4038 1234 4038 1678 
Q 4038 2116 3813 2373 
Q 3588 2631 3206 2631 
Q 2828 2631 2604 2375 
Q 2381 2119 2381 1678 
z
M 4084 744 
Q 3897 503 3655 389 
Q 3413 275 3091 275 
Q 2553 275 2217 664 
Q 1881 1053 1881 1678 
Q 1881 2303 2218 2693 
Q 2556 3084 3091 3084 
Q 3413 3084 3656 2967 
Q 3900 2850 4084 2613 
L 4084 3022 
L 4531 3022 
L 4531 722 
Q 4988 791 5245 1139 
Q 5503 1488 5503 2041 
Q 5503 2375 5404 2669 
Q 5306 2963 5106 3213 
Q 4781 3622 4314 3839 
Q 3847 4056 3297 4056 
Q 2913 4056 2559 3954 
Q 2206 3853 1906 3653 
Q 1416 3334 1139 2817 
Q 863 2300 863 1697 
Q 863 1200 1042 765 
Q 1222 331 1563 0 
Q 1891 -325 2322 -495 
Q 2753 -666 3244 -666 
Q 3647 -666 4036 -530 
Q 4425 -394 4750 -141 
L 5031 -488 
Q 4641 -791 4180 -952 
Q 3719 -1113 3244 -1113 
Q 2666 -1113 2153 -908 
Q 1641 -703 1241 -313 
Q 841 78 631 592 
Q 422 1106 422 1697 
Q 422 2266 634 2781 
Q 847 3297 1241 3688 
Q 1644 4084 2172 4295 
Q 2700 4506 3291 4506 
Q 3953 4506 4520 4234 
Q 5088 3963 5472 3463 
Q 5706 3156 5829 2797 
Q 5953 2438 5953 2053 
Q 5953 1231 5456 756 
Q 4959 281 4084 263 
L 4084 744 
z
" transform="scale(0.015625)"/>
      <path id="DejaVuSans-394" d="M 2188 4044 
L 906 525 
L 3472 525 
L 2188 4044 
z
M 50 0 
L 1831 4666 
L 2547 4666 
L 4325 0 
L 50 0 
z
" transform="scale(0.015625)"/>
      <path id="DejaVuSans-3d" d="M 678 2906 
L 4684 2906 
L 4684 2381 
L 678 2381 
L 678 2906 
z
M 678 1631 
L 4684 1631 
L 4684 1100 
L 678 1100 
L 678 1631 
z
" transform="scale(0.015625)"/>
     </defs>
     <use xlink:href="#DejaVuSans-40"/>
     <use xlink:href="#DejaVuSans-20" x="100"/>
     <use xlink:href="#DejaVuSans-394" x="131.787109"/>
     <use xlink:href="#DejaVuSans-20" x="200.195312"/>
     <use xlink:href="#DejaVuSans-3d" x="231.982422"/>
     <use xlink:href="#DejaVuSans-20" x="315.771484"/>
     <use xlink:href="#DejaVuSans-31" x="347.558594"/>
     <use xlink:href="#DejaVuSans-30" x="411.181641"/>
     <use xlink:href="#DejaVuSans-2e" x="474.804688"/>
     <use xlink:href="#DejaVuSans-30" x="506.591797"/>
     <use xlink:href="#DejaVuSans-31" x="570.214844"/>
     <use xlink:href="#DejaVuSans-20" x="633.837891"/>
     <use xlink:href="#DejaVuSans-69" x="665.625"/>
     <use xlink:href="#DejaVuSans-6e" x="693.408203"/>
    </g>
   </g>
   <g id="text_15">
    <!-- Pushover Curve  (X-direction, triangular loading) -->
    <g transform="translate(7.2 17.077969) scale(0.13 -0.13)">
     <defs>
      <path id="DejaVuSans-Bold-50" d="M 588 4666 
L 2584 4666 
Q 3475 4666 3951 4270 
Q 4428 3875 4428 3144 
Q 4428 2409 3951 2014 
Q 3475 1619 2584 1619 
L 1791 1619 
L 1791 0 
L 588 0 
L 588 4666 
z
M 1791 3794 
L 1791 2491 
L 2456 2491 
Q 2806 2491 2997 2661 
Q 3188 2831 3188 3144 
Q 3188 3456 2997 3625 
Q 2806 3794 2456 3794 
L 1791 3794 
z
" transform="scale(0.015625)"/>
      <path id="DejaVuSans-Bold-75" d="M 500 1363 
L 500 3500 
L 1625 3500 
L 1625 3150 
Q 1625 2866 1622 2436 
Q 1619 2006 1619 1863 
Q 1619 1441 1641 1255 
Q 1663 1069 1716 984 
Q 1784 875 1895 815 
Q 2006 756 2150 756 
Q 2500 756 2700 1025 
Q 2900 1294 2900 1772 
L 2900 3500 
L 4019 3500 
L 4019 0 
L 2900 0 
L 2900 506 
Q 2647 200 2364 54 
Q 2081 -91 1741 -91 
Q 1134 -91 817 281 
Q 500 653 500 1363 
z
" transform="scale(0.015625)"/>
      <path id="DejaVuSans-Bold-73" d="M 3272 3391 
L 3272 2541 
Q 2913 2691 2578 2766 
Q 2244 2841 1947 2841 
Q 1628 2841 1473 2761 
Q 1319 2681 1319 2516 
Q 1319 2381 1436 2309 
Q 1553 2238 1856 2203 
L 2053 2175 
Q 2913 2066 3209 1816 
Q 3506 1566 3506 1031 
Q 3506 472 3093 190 
Q 2681 -91 1863 -91 
Q 1516 -91 1145 -36 
Q 775 19 384 128 
L 384 978 
Q 719 816 1070 734 
Q 1422 653 1784 653 
Q 2113 653 2278 743 
Q 2444 834 2444 1013 
Q 2444 1163 2330 1236 
Q 2216 1309 1875 1350 
L 1678 1375 
Q 931 1469 631 1722 
Q 331 1975 331 2491 
Q 331 3047 712 3315 
Q 1094 3584 1881 3584 
Q 2191 3584 2531 3537 
Q 2872 3491 3272 3391 
z
" transform="scale(0.015625)"/>
      <path id="DejaVuSans-Bold-68" d="M 4056 2131 
L 4056 0 
L 2931 0 
L 2931 347 
L 2931 1625 
Q 2931 2084 2911 2256 
Q 2891 2428 2841 2509 
Q 2775 2619 2662 2680 
Q 2550 2741 2406 2741 
Q 2056 2741 1856 2470 
Q 1656 2200 1656 1722 
L 1656 0 
L 538 0 
L 538 4863 
L 1656 4863 
L 1656 2988 
Q 1909 3294 2193 3439 
Q 2478 3584 2822 3584 
Q 3428 3584 3742 3212 
Q 4056 2841 4056 2131 
z
" transform="scale(0.015625)"/>
      <path id="DejaVuSans-Bold-6f" d="M 2203 2784 
Q 1831 2784 1636 2517 
Q 1441 2250 1441 1747 
Q 1441 1244 1636 976 
Q 1831 709 2203 709 
Q 2569 709 2762 976 
Q 2956 1244 2956 1747 
Q 2956 2250 2762 2517 
Q 2569 2784 2203 2784 
z
M 2203 3584 
Q 3106 3584 3614 3096 
Q 4122 2609 4122 1747 
Q 4122 884 3614 396 
Q 3106 -91 2203 -91 
Q 1297 -91 786 396 
Q 275 884 275 1747 
Q 275 2609 786 3096 
Q 1297 3584 2203 3584 
z
" transform="scale(0.015625)"/>
      <path id="DejaVuSans-Bold-76" d="M 97 3500 
L 1216 3500 
L 2088 1081 
L 2956 3500 
L 4078 3500 
L 2700 0 
L 1472 0 
L 97 3500 
z
" transform="scale(0.015625)"/>
      <path id="DejaVuSans-Bold-65" d="M 4031 1759 
L 4031 1441 
L 1416 1441 
Q 1456 1047 1700 850 
Q 1944 653 2381 653 
Q 2734 653 3104 758 
Q 3475 863 3866 1075 
L 3866 213 
Q 3469 63 3072 -14 
Q 2675 -91 2278 -91 
Q 1328 -91 801 392 
Q 275 875 275 1747 
Q 275 2603 792 3093 
Q 1309 3584 2216 3584 
Q 3041 3584 3536 3087 
Q 4031 2591 4031 1759 
z
M 2881 2131 
Q 2881 2450 2695 2645 
Q 2509 2841 2209 2841 
Q 1884 2841 1681 2658 
Q 1478 2475 1428 2131 
L 2881 2131 
z
" transform="scale(0.015625)"/>
      <path id="DejaVuSans-Bold-72" d="M 3138 2547 
Q 2991 2616 2845 2648 
Q 2700 2681 2553 2681 
Q 2122 2681 1889 2404 
Q 1656 2128 1656 1613 
L 1656 0 
L 538 0 
L 538 3500 
L 1656 3500 
L 1656 2925 
Q 1872 3269 2151 3426 
Q 2431 3584 2822 3584 
Q 2878 3584 2943 3579 
Q 3009 3575 3134 3559 
L 3138 2547 
z
" transform="scale(0.015625)"/>
      <path id="DejaVuSans-Bold-20" transform="scale(0.015625)"/>
      <path id="DejaVuSans-Bold-43" d="M 4288 256 
Q 3956 84 3597 -3 
Q 3238 -91 2847 -91 
Q 1681 -91 1000 561 
Q 319 1213 319 2328 
Q 319 3447 1000 4098 
Q 1681 4750 2847 4750 
Q 3238 4750 3597 4662 
Q 3956 4575 4288 4403 
L 4288 3438 
Q 3953 3666 3628 3772 
Q 3303 3878 2944 3878 
Q 2300 3878 1931 3465 
Q 1563 3053 1563 2328 
Q 1563 1606 1931 1193 
Q 2300 781 2944 781 
Q 3303 781 3628 887 
Q 3953 994 4288 1222 
L 4288 256 
z
" transform="scale(0.015625)"/>
      <path id="DejaVuSans-Bold-28" d="M 2413 -844 
L 1484 -844 
Q 1006 -72 778 623 
Q 550 1319 550 2003 
Q 550 2688 779 3389 
Q 1009 4091 1484 4856 
L 2413 4856 
Q 2013 4116 1813 3408 
Q 1613 2700 1613 2009 
Q 1613 1319 1811 609 
Q 2009 -100 2413 -844 
z
" transform="scale(0.015625)"/>
      <path id="DejaVuSans-Bold-58" d="M 3188 2381 
L 4806 0 
L 3553 0 
L 2463 1594 
L 1381 0 
L 122 0 
L 1741 2381 
L 184 4666 
L 1441 4666 
L 2463 3163 
L 3481 4666 
L 4744 4666 
L 3188 2381 
z
" transform="scale(0.015625)"/>
      <path id="DejaVuSans-Bold-2d" d="M 347 2297 
L 2309 2297 
L 2309 1388 
L 347 1388 
L 347 2297 
z
" transform="scale(0.015625)"/>
      <path id="DejaVuSans-Bold-64" d="M 2919 2988 
L 2919 4863 
L 4044 4863 
L 4044 0 
L 2919 0 
L 2919 506 
Q 2688 197 2409 53 
Q 2131 -91 1766 -91 
Q 1119 -91 703 423 
Q 288 938 288 1747 
Q 288 2556 703 3070 
Q 1119 3584 1766 3584 
Q 2128 3584 2408 3439 
Q 2688 3294 2919 2988 
z
M 2181 722 
Q 2541 722 2730 984 
Q 2919 1247 2919 1747 
Q 2919 2247 2730 2509 
Q 2541 2772 2181 2772 
Q 1825 2772 1636 2509 
Q 1447 2247 1447 1747 
Q 1447 1247 1636 984 
Q 1825 722 2181 722 
z
" transform="scale(0.015625)"/>
      <path id="DejaVuSans-Bold-69" d="M 538 3500 
L 1656 3500 
L 1656 0 
L 538 0 
L 538 3500 
z
M 538 4863 
L 1656 4863 
L 1656 3950 
L 538 3950 
L 538 4863 
z
" transform="scale(0.015625)"/>
      <path id="DejaVuSans-Bold-63" d="M 3366 3391 
L 3366 2478 
Q 3138 2634 2908 2709 
Q 2678 2784 2431 2784 
Q 1963 2784 1702 2511 
Q 1441 2238 1441 1747 
Q 1441 1256 1702 982 
Q 1963 709 2431 709 
Q 2694 709 2930 787 
Q 3166 866 3366 1019 
L 3366 103 
Q 3103 6 2833 -42 
Q 2563 -91 2291 -91 
Q 1344 -91 809 395 
Q 275 881 275 1747 
Q 275 2613 809 3098 
Q 1344 3584 2291 3584 
Q 2566 3584 2833 3536 
Q 3100 3488 3366 3391 
z
" transform="scale(0.015625)"/>
      <path id="DejaVuSans-Bold-74" d="M 1759 4494 
L 1759 3500 
L 2913 3500 
L 2913 2700 
L 1759 2700 
L 1759 1216 
Q 1759 972 1856 886 
Q 1953 800 2241 800 
L 2816 800 
L 2816 0 
L 1856 0 
Q 1194 0 917 276 
Q 641 553 641 1216 
L 641 2700 
L 84 2700 
L 84 3500 
L 641 3500 
L 641 4494 
L 1759 4494 
z
" transform="scale(0.015625)"/>
      <path id="DejaVuSans-Bold-6e" d="M 4056 2131 
L 4056 0 
L 2931 0 
L 2931 347 
L 2931 1631 
Q 2931 2084 2911 2256 
Q 2891 2428 2841 2509 
Q 2775 2619 2662 2680 
Q 2550 2741 2406 2741 
Q 2056 2741 1856 2470 
Q 1656 2200 1656 1722 
L 1656 0 
L 538 0 
L 538 3500 
L 1656 3500 
L 1656 2988 
Q 1909 3294 2193 3439 
Q 2478 3584 2822 3584 
Q 3428 3584 3742 3212 
Q 4056 2841 4056 2131 
z
" transform="scale(0.015625)"/>
      <path id="DejaVuSans-Bold-2c" d="M 653 1209 
L 1778 1209 
L 1778 256 
L 1006 -909 
L 341 -909 
L 653 256 
L 653 1209 
z
" transform="scale(0.015625)"/>
      <path id="DejaVuSans-Bold-61" d="M 2106 1575 
Q 1756 1575 1579 1456 
Q 1403 1338 1403 1106 
Q 1403 894 1545 773 
Q 1688 653 1941 653 
Q 2256 653 2472 879 
Q 2688 1106 2688 1447 
L 2688 1575 
L 2106 1575 
z
M 3816 1997 
L 3816 0 
L 2688 0 
L 2688 519 
Q 2463 200 2181 54 
Q 1900 -91 1497 -91 
Q 953 -91 614 226 
Q 275 544 275 1050 
Q 275 1666 698 1953 
Q 1122 2241 2028 2241 
L 2688 2241 
L 2688 2328 
Q 2688 2594 2478 2717 
Q 2269 2841 1825 2841 
Q 1466 2841 1156 2769 
Q 847 2697 581 2553 
L 581 3406 
Q 941 3494 1303 3539 
Q 1666 3584 2028 3584 
Q 2975 3584 3395 3211 
Q 3816 2838 3816 1997 
z
" transform="scale(0.015625)"/>
      <path id="DejaVuSans-Bold-67" d="M 2919 594 
Q 2688 288 2409 144 
Q 2131 0 1766 0 
Q 1125 0 706 504 
Q 288 1009 288 1791 
Q 288 2575 706 3076 
Q 1125 3578 1766 3578 
Q 2131 3578 2409 3434 
Q 2688 3291 2919 2981 
L 2919 3500 
L 4044 3500 
L 4044 353 
Q 4044 -491 3511 -936 
Q 2978 -1381 1966 -1381 
Q 1638 -1381 1331 -1331 
Q 1025 -1281 716 -1178 
L 716 -306 
Q 1009 -475 1290 -558 
Q 1572 -641 1856 -641 
Q 2406 -641 2662 -400 
Q 2919 -159 2919 353 
L 2919 594 
z
M 2181 2772 
Q 1834 2772 1640 2515 
Q 1447 2259 1447 1791 
Q 1447 1309 1634 1061 
Q 1822 813 2181 813 
Q 2531 813 2725 1069 
Q 2919 1325 2919 1791 
Q 2919 2259 2725 2515 
Q 2531 2772 2181 2772 
z
" transform="scale(0.015625)"/>
      <path id="DejaVuSans-Bold-6c" d="M 538 4863 
L 1656 4863 
L 1656 0 
L 538 0 
L 538 4863 
z
" transform="scale(0.015625)"/>
      <path id="DejaVuSans-Bold-29" d="M 513 -844 
Q 913 -100 1113 609 
Q 1313 1319 1313 2009 
Q 1313 2700 1113 3408 
Q 913 4116 513 4856 
L 1441 4856 
Q 1916 4091 2145 3389 
Q 2375 2688 2375 2003 
Q 2375 1319 2147 623 
Q 1919 -72 1441 -844 
L 513 -844 
z
" transform="scale(0.015625)"/>
     </defs>
     <use xlink:href="#DejaVuSans-Bold-50"/>
     <use xlink:href="#DejaVuSans-Bold-75" x="73.291016"/>
     <use xlink:href="#DejaVuSans-Bold-73" x="144.482422"/>
     <use xlink:href="#DejaVuSans-Bold-68" x="204.003906"/>
     <use xlink:href="#DejaVuSans-Bold-6f" x="275.195312"/>
     <use xlink:href="#DejaVuSans-Bold-76" x="343.896484"/>
     <use xlink:href="#DejaVuSans-Bold-65" x="409.082031"/>
     <use xlink:href="#DejaVuSans-Bold-72" x="476.904297"/>
     <use xlink:href="#DejaVuSans-Bold-20" x="526.220703"/>
     <use xlink:href="#DejaVuSans-Bold-43" x="561.035156"/>
     <use xlink:href="#DejaVuSans-Bold-75" x="634.423828"/>
     <use xlink:href="#DejaVuSans-Bold-72" x="705.615234"/>
     <use xlink:href="#DejaVuSans-Bold-76" x="754.931641"/>
     <use xlink:href="#DejaVuSans-Bold-65" x="820.117188"/>
     <use xlink:href="#DejaVuSans-Bold-20" x="887.939453"/>
     <use xlink:href="#DejaVuSans-Bold-20" x="922.753906"/>
     <use xlink:href="#DejaVuSans-Bold-28" x="957.568359"/>
     <use xlink:href="#DejaVuSans-Bold-58" x="1003.271484"/>
     <use xlink:href="#DejaVuSans-Bold-2d" x="1072.246094"/>
     <use xlink:href="#DejaVuSans-Bold-64" x="1113.75"/>
     <use xlink:href="#DejaVuSans-Bold-69" x="1185.332031"/>
     <use xlink:href="#DejaVuSans-Bold-72" x="1219.609375"/>
     <use xlink:href="#DejaVuSans-Bold-65" x="1268.925781"/>
     <use xlink:href="#DejaVuSans-Bold-63" x="1336.748047"/>
     <use xlink:href="#DejaVuSans-Bold-74" x="1396.025391"/>
     <use xlink:href="#DejaVuSans-Bold-69" x="1443.828125"/>
     <use xlink:href="#DejaVuSans-Bold-6f" x="1478.105469"/>
     <use xlink:href="#DejaVuSans-Bold-6e" x="1546.806641"/>
     <use xlink:href="#DejaVuSans-Bold-2c" x="1617.998047"/>
     <use xlink:href="#DejaVuSans-Bold-20" x="1655.986328"/>
     <use xlink:href="#DejaVuSans-Bold-74" x="1690.800781"/>
     <use xlink:href="#DejaVuSans-Bold-72" x="1738.603516"/>
     <use xlink:href="#DejaVuSans-Bold-69" x="1787.919922"/>
     <use xlink:href="#DejaVuSans-Bold-61" x="1822.197266"/>
     <use xlink:href="#DejaVuSans-Bold-6e" x="1889.677734"/>
     <use xlink:href="#DejaVuSans-Bold-67" x="1960.869141"/>
     <use xlink:href="#DejaVuSans-Bold-75" x="2032.451172"/>
     <use xlink:href="#DejaVuSans-Bold-6c" x="2103.642578"/>
     <use xlink:href="#DejaVuSans-Bold-61" x="2137.919922"/>
     <use xlink:href="#DejaVuSans-Bold-72" x="2205.400391"/>
     <use xlink:href="#DejaVuSans-Bold-20" x="2254.716797"/>
     <use xlink:href="#DejaVuSans-Bold-6c" x="2289.53125"/>
     <use xlink:href="#DejaVuSans-Bold-6f" x="2323.808594"/>
     <use xlink:href="#DejaVuSans-Bold-61" x="2392.509766"/>
     <use xlink:href="#DejaVuSans-Bold-64" x="2459.990234"/>
     <use xlink:href="#DejaVuSans-Bold-69" x="2531.572266"/>
     <use xlink:href="#DejaVuSans-Bold-6e" x="2565.849609"/>
     <use xlink:href="#DejaVuSans-Bold-67" x="2637.041016"/>
     <use xlink:href="#DejaVuSans-Bold-29" x="2708.623047"/>
    </g>
   </g>
   <g id="PathCollection_1">
    <defs>
     <path id="mc6cbf80626" d="M 0 2.12132 
C 0.562581 2.12132 1.102195 1.897805 1.5 1.5 
C 1.897805 1.102195 2.12132 0.562581 2.12132 0 
C 2.12132 -0.562581 1.897805 -1.102195 1.5 -1.5 
C 1.102195 -1.897805 0.562581 -2.12132 0 -2.12132 
C -0.562581 -2.12132 -1.102195 -1.897805 -1.5 -1.5 
C -1.897805 -1.102195 -2.12132 -0.562581 -2.12132 0 
C -2.12132 0.562581 -1.897805 1.102195 -1.5 1.5 
C -1.102195 1.897805 -0.562581 2.12132 0 2.12132 
z
" style="stroke: #4682b4"/>
    </defs>
    <g clip-path="url(#p84078665a5)">
     <use xlink:href="#mc6cbf80626" x="110.639297" y="169.517969" style="fill: #4682b4; stroke: #4682b4"/>
     <use xlink:href="#mc6cbf80626" x="166.844201" y="81.327915" style="fill: #4682b4; stroke: #4682b4"/>
     <use xlink:href="#mc6cbf80626" x="168.283153" y="79.925962" style="fill: #4682b4; stroke: #4682b4"/>
     <use xlink:href="#mc6cbf80626" x="169.722104" y="78.546958" style="fill: #4682b4; stroke: #4682b4"/>
     <use xlink:href="#mc6cbf80626" x="171.161056" y="77.190114" style="fill: #4682b4; stroke: #4682b4"/>
     <use xlink:href="#mc6cbf80626" x="172.600008" y="75.855247" style="fill: #4682b4; stroke: #4682b4"/>
     <use xlink:href="#mc6cbf80626" x="174.038959" y="74.541939" style="fill: #4682b4; stroke: #4682b4"/>
     <use xlink:href="#mc6cbf80626" x="175.477911" y="73.250526" style="fill: #4682b4; stroke: #4682b4"/>
     <use xlink:href="#mc6cbf80626" x="176.916863" y="71.980246" style="fill: #4682b4; stroke: #4682b4"/>
     <use xlink:href="#mc6cbf80626" x="178.355814" y="70.728305" style="fill: #4682b4; stroke: #4682b4"/>
     <use xlink:href="#mc6cbf80626" x="179.794766" y="69.496061" style="fill: #4682b4; stroke: #4682b4"/>
     <use xlink:href="#mc6cbf80626" x="181.233717" y="68.285786" style="fill: #4682b4; stroke: #4682b4"/>
     <use xlink:href="#mc6cbf80626" x="182.672669" y="67.094587" style="fill: #4682b4; stroke: #4682b4"/>
     <use xlink:href="#mc6cbf80626" x="184.111621" y="65.921641" style="fill: #4682b4; stroke: #4682b4"/>
     <use xlink:href="#mc6cbf80626" x="185.550572" y="64.766705" style="fill: #4682b4; stroke: #4682b4"/>
     <use xlink:href="#mc6cbf80626" x="186.989524" y="63.630629" style="fill: #4682b4; stroke: #4682b4"/>
     <use xlink:href="#mc6cbf80626" x="188.428475" y="62.514029" style="fill: #4682b4; stroke: #4682b4"/>
     <use xlink:href="#mc6cbf80626" x="189.867427" y="61.4159" style="fill: #4682b4; stroke: #4682b4"/>
     <use xlink:href="#mc6cbf80626" x="191.306379" y="60.336732" style="fill: #4682b4; stroke: #4682b4"/>
     <use xlink:href="#mc6cbf80626" x="192.74533" y="59.276489" style="fill: #4682b4; stroke: #4682b4"/>
     <use xlink:href="#mc6cbf80626" x="194.184282" y="58.235479" style="fill: #4682b4; stroke: #4682b4"/>
     <use xlink:href="#mc6cbf80626" x="195.623233" y="57.213884" style="fill: #4682b4; stroke: #4682b4"/>
     <use xlink:href="#mc6cbf80626" x="197.062185" y="56.212226" style="fill: #4682b4; stroke: #4682b4"/>
     <use xlink:href="#mc6cbf80626" x="198.501137" y="55.232325" style="fill: #4682b4; stroke: #4682b4"/>
     <use xlink:href="#mc6cbf80626" x="199.940088" y="54.276904" style="fill: #4682b4; stroke: #4682b4"/>
     <use xlink:href="#mc6cbf80626" x="201.37904" y="53.347731" style="fill: #4682b4; stroke: #4682b4"/>
     <use xlink:href="#mc6cbf80626" x="202.817991" y="52.446688" style="fill: #4682b4; stroke: #4682b4"/>
     <use xlink:href="#mc6cbf80626" x="204.256943" y="51.572974" style="fill: #4682b4; stroke: #4682b4"/>
     <use xlink:href="#mc6cbf80626" x="205.695895" y="50.726746" style="fill: #4682b4; stroke: #4682b4"/>
     <use xlink:href="#mc6cbf80626" x="207.134846" y="49.904066" style="fill: #4682b4; stroke: #4682b4"/>
     <use xlink:href="#mc6cbf80626" x="208.573798" y="49.09738" style="fill: #4682b4; stroke: #4682b4"/>
     <use xlink:href="#mc6cbf80626" x="210.012749" y="48.301242" style="fill: #4682b4; stroke: #4682b4"/>
     <use xlink:href="#mc6cbf80626" x="211.451701" y="47.517912" style="fill: #4682b4; stroke: #4682b4"/>
     <use xlink:href="#mc6cbf80626" x="212.890653" y="46.747755" style="fill: #4682b4; stroke: #4682b4"/>
     <use xlink:href="#mc6cbf80626" x="214.329604" y="45.991857" style="fill: #4682b4; stroke: #4682b4"/>
     <use xlink:href="#mc6cbf80626" x="215.768556" y="45.250736" style="fill: #4682b4; stroke: #4682b4"/>
     <use xlink:href="#mc6cbf80626" x="217.207507" y="44.526823" style="fill: #4682b4; stroke: #4682b4"/>
     <use xlink:href="#mc6cbf80626" x="218.646459" y="43.817975" style="fill: #4682b4; stroke: #4682b4"/>
     <use xlink:href="#mc6cbf80626" x="220.085411" y="43.126566" style="fill: #4682b4; stroke: #4682b4"/>
     <use xlink:href="#mc6cbf80626" x="221.524362" y="42.452197" style="fill: #4682b4; stroke: #4682b4"/>
     <use xlink:href="#mc6cbf80626" x="222.963314" y="41.791239" style="fill: #4682b4; stroke: #4682b4"/>
     <use xlink:href="#mc6cbf80626" x="224.402266" y="41.148623" style="fill: #4682b4; stroke: #4682b4"/>
     <use xlink:href="#mc6cbf80626" x="225.841217" y="40.522626" style="fill: #4682b4; stroke: #4682b4"/>
     <use xlink:href="#mc6cbf80626" x="227.280169" y="39.908629" style="fill: #4682b4; stroke: #4682b4"/>
     <use xlink:href="#mc6cbf80626" x="228.71912" y="39.305985" style="fill: #4682b4; stroke: #4682b4"/>
     <use xlink:href="#mc6cbf80626" x="230.158072" y="38.719502" style="fill: #4682b4; stroke: #4682b4"/>
     <use xlink:href="#mc6cbf80626" x="231.597024" y="38.14191" style="fill: #4682b4; stroke: #4682b4"/>
     <use xlink:href="#mc6cbf80626" x="233.035975" y="37.571954" style="fill: #4682b4; stroke: #4682b4"/>
     <use xlink:href="#mc6cbf80626" x="234.474927" y="37.010483" style="fill: #4682b4; stroke: #4682b4"/>
     <use xlink:href="#mc6cbf80626" x="235.913878" y="36.460462" style="fill: #4682b4; stroke: #4682b4"/>
     <use xlink:href="#mc6cbf80626" x="237.35283" y="35.920402" style="fill: #4682b4; stroke: #4682b4"/>
     <use xlink:href="#mc6cbf80626" x="238.791782" y="35.384162" style="fill: #4682b4; stroke: #4682b4"/>
     <use xlink:href="#mc6cbf80626" x="240.230733" y="34.856157" style="fill: #4682b4; stroke: #4682b4"/>
     <use xlink:href="#mc6cbf80626" x="241.669685" y="34.336449" style="fill: #4682b4; stroke: #4682b4"/>
     <use xlink:href="#mc6cbf80626" x="243.108636" y="33.824642" style="fill: #4682b4; stroke: #4682b4"/>
     <use xlink:href="#mc6cbf80626" x="244.547588" y="33.325712" style="fill: #4682b4; stroke: #4682b4"/>
     <use xlink:href="#mc6cbf80626" x="245.98654" y="32.835802" style="fill: #4682b4; stroke: #4682b4"/>
     <use xlink:href="#mc6cbf80626" x="247.425491" y="32.352472" style="fill: #4682b4; stroke: #4682b4"/>
     <use xlink:href="#mc6cbf80626" x="248.864443" y="31.874273" style="fill: #4682b4; stroke: #4682b4"/>
     <use xlink:href="#mc6cbf80626" x="250.303394" y="31.405629" style="fill: #4682b4; stroke: #4682b4"/>
     <use xlink:href="#mc6cbf80626" x="251.742346" y="30.951184" style="fill: #4682b4; stroke: #4682b4"/>
     <use xlink:href="#mc6cbf80626" x="253.181298" y="30.498669" style="fill: #4682b4; stroke: #4682b4"/>
     <use xlink:href="#mc6cbf80626" x="254.620249" y="30.051302" style="fill: #4682b4; stroke: #4682b4"/>
    </g>
   </g>
  </g>
 </g>
 <defs>
  <clipPath id="p84078665a5">
   <rect x="110.639297" y="23.077969" width="151.18" height="146.44"/>
  </clipPath>
 </defs>
</svg>
